<svg xmlns="http://www.w3.org/2000/svg" xmlns:xlink="http://www.w3.org/1999/xlink" width="500" zoomAndPan="magnify" viewBox="0 0 375 374.999991" height="500" preserveAspectRatio="xMidYMid meet" version="1.0"><defs><g/><clipPath id="fabb457333"><path d="M 205 17.71875 L 329.714844 17.71875 L 329.714844 191 L 205 191 Z M 205 17.71875 " clip-rule="nonzero"/></clipPath><clipPath id="2f2a62b172"><path d="M 45.449219 68 L 188 68 L 188 257.527344 L 45.449219 257.527344 Z M 45.449219 68 " clip-rule="nonzero"/></clipPath><clipPath id="1561593d07"><path d="M 120 48 L 329.714844 48 L 329.714844 257.527344 L 120 257.527344 Z M 120 48 " clip-rule="nonzero"/></clipPath></defs><rect x="-37.5" width="450" fill="#ffffff" y="-37.499999" height="449.999989" fill-opacity="1"/><g clip-path="url(#fabb457333)"><path fill="#00cdba" d="M 262.894531 17.59375 C 238.179688 17.59375 216.5625 31.113281 205.058594 51.152344 C 213.707031 53.5 221.792969 57.585938 228.886719 63.230469 C 235.945312 51.851562 248.546875 44.25 262.894531 44.25 C 284.941406 44.25 302.878906 62.1875 302.878906 84.238281 L 302.878906 136.609375 L 310.015625 143.746094 C 322.605469 156.332031 329.539062 173.066406 329.539062 190.867188 L 329.539062 84.238281 C 329.539062 47.488281 299.640625 17.59375 262.894531 17.59375 Z M 262.894531 17.59375 " fill-opacity="1" fill-rule="nonzero"/></g><path fill="#010101" d="M 142.835938 65.996094 C 142.882812 65.949219 142.9375 65.90625 142.992188 65.859375 C 142.9375 65.90625 142.882812 65.949219 142.835938 65.996094 Z M 142.835938 65.996094 " fill-opacity="1" fill-rule="nonzero"/><path fill="#010101" d="M 141.578125 67.164062 C 141.691406 67.054688 141.8125 66.949219 141.933594 66.839844 C 141.8125 66.949219 141.691406 67.054688 141.578125 67.164062 Z M 141.578125 67.164062 " fill-opacity="1" fill-rule="nonzero"/><path fill="#010101" d="M 140.367188 68.34375 C 140.53125 68.183594 140.695312 68.023438 140.863281 67.863281 C 140.695312 68.023438 140.53125 68.183594 140.367188 68.34375 C 140.363281 68.351562 140.351562 68.363281 140.34375 68.367188 Z M 140.367188 68.34375 " fill-opacity="1" fill-rule="nonzero"/><g clip-path="url(#2f2a62b172)"><path fill="#1096e6" d="M 64.96875 237.992188 C 77.558594 250.582031 94.292969 257.511719 112.09375 257.511719 C 129.890625 257.511719 146.628906 250.582031 159.214844 237.992188 L 187.492188 209.714844 L 168.640625 190.867188 L 140.363281 219.144531 C 132.8125 226.695312 122.765625 230.855469 112.085938 230.855469 C 101.40625 230.855469 91.363281 226.695312 83.808594 219.144531 C 76.261719 211.59375 72.105469 201.550781 72.105469 190.867188 C 72.105469 180.1875 76.261719 170.144531 83.816406 162.589844 L 121.539062 124.867188 C 118.710938 104.835938 124.976562 83.75 140.339844 68.367188 L 64.96875 143.746094 C 52.378906 156.332031 45.449219 173.066406 45.449219 190.867188 C 45.449219 208.667969 52.378906 225.410156 64.96875 237.992188 Z M 64.96875 237.992188 " fill-opacity="1" fill-rule="nonzero"/></g><path fill="#010101" d="M 140.855469 67.863281 C 141.097656 67.628906 141.332031 67.394531 141.574219 67.164062 C 141.335938 67.394531 141.097656 67.628906 140.855469 67.863281 Z M 140.855469 67.863281 " fill-opacity="1" fill-rule="nonzero"/><path fill="#010101" d="M 141.925781 66.839844 C 142.226562 66.558594 142.527344 66.273438 142.835938 65.996094 C 142.527344 66.273438 142.226562 66.558594 141.925781 66.839844 Z M 141.925781 66.839844 " fill-opacity="1" fill-rule="nonzero"/><g clip-path="url(#1561593d07)"><path fill="#3c51c4" d="M 310.015625 143.746094 L 302.878906 136.609375 L 234.617188 68.34375 C 234.488281 68.21875 234.363281 68.097656 234.238281 67.972656 C 233.960938 67.699219 233.683594 67.429688 233.40625 67.160156 C 233.296875 67.054688 233.195312 66.960938 233.085938 66.863281 C 232.773438 66.570312 232.460938 66.28125 232.148438 65.992188 C 232.105469 65.949219 232.058594 65.914062 232.015625 65.871094 C 230.992188 64.949219 229.945312 64.070312 228.886719 63.230469 C 228.886719 63.230469 228.886719 63.230469 228.886719 63.222656 C 221.792969 57.578125 213.707031 53.492188 205.058594 51.144531 C 205.050781 51.15625 205.046875 51.171875 205.039062 51.183594 C 199.304688 49.628906 193.402344 48.847656 187.5 48.847656 C 171.558594 48.847656 155.617188 54.515625 142.992188 65.851562 C 142.945312 65.902344 142.890625 65.941406 142.835938 65.992188 C 142.527344 66.269531 142.226562 66.550781 141.925781 66.832031 C 141.8125 66.941406 141.691406 67.050781 141.574219 67.160156 C 141.332031 67.386719 141.089844 67.621094 140.855469 67.855469 C 140.695312 68.019531 140.523438 68.175781 140.363281 68.339844 L 140.339844 68.363281 C 124.976562 83.742188 118.707031 104.828125 121.539062 124.863281 C 123.488281 138.671875 129.765625 151.984375 140.367188 162.585938 L 168.644531 190.863281 L 187.5 209.710938 L 215.773438 237.984375 L 215.800781 237.960938 L 215.773438 237.984375 C 227.539062 249.75 242.925781 256.574219 259.421875 257.417969 C 259.4375 257.417969 259.464844 257.417969 259.480469 257.421875 C 259.96875 257.445312 260.457031 257.464844 260.949219 257.476562 C 261.035156 257.476562 261.117188 257.484375 261.195312 257.488281 C 261.761719 257.5 262.328125 257.511719 262.898438 257.511719 C 263.46875 257.511719 264.035156 257.507812 264.601562 257.488281 C 264.6875 257.488281 264.769531 257.484375 264.847656 257.476562 C 265.335938 257.464844 265.828125 257.445312 266.316406 257.421875 C 266.335938 257.421875 266.359375 257.421875 266.378906 257.417969 C 282.871094 256.574219 298.257812 249.75 310.023438 237.984375 C 321.789062 226.222656 328.609375 210.835938 329.453125 194.339844 C 329.453125 194.324219 329.453125 194.296875 329.460938 194.28125 C 329.484375 193.792969 329.5 193.304688 329.515625 192.8125 C 329.515625 192.726562 329.519531 192.648438 329.527344 192.566406 C 329.539062 192 329.550781 191.433594 329.550781 190.863281 C 329.539062 173.066406 322.605469 156.332031 310.015625 143.746094 Z M 302.832031 192.910156 C 302.824219 193.003906 302.8125 193.101562 302.808594 193.195312 C 302.773438 193.78125 302.734375 194.371094 302.675781 194.949219 C 302.675781 194.964844 302.667969 194.984375 302.667969 195.003906 C 300.738281 213.753906 285.789062 228.707031 267.03125 230.644531 C 267.015625 230.644531 266.992188 230.652344 266.972656 230.652344 C 266.394531 230.710938 265.8125 230.753906 265.222656 230.78125 C 265.125 230.789062 265.027344 230.800781 264.933594 230.808594 C 264.257812 230.84375 263.578125 230.863281 262.894531 230.863281 C 262.207031 230.863281 261.53125 230.84375 260.851562 230.808594 C 260.757812 230.800781 260.660156 230.789062 260.5625 230.78125 C 259.980469 230.746094 259.398438 230.710938 258.8125 230.652344 C 258.796875 230.652344 258.769531 230.644531 258.753906 230.644531 C 249.636719 229.710938 241.1875 225.714844 234.617188 219.144531 L 159.210938 143.738281 C 143.625 128.152344 143.617188 102.796875 159.199219 87.203125 C 159.203125 87.199219 159.203125 87.199219 159.210938 87.191406 C 159.316406 87.082031 159.425781 86.988281 159.535156 86.882812 C 159.914062 86.515625 160.292969 86.144531 160.683594 85.796875 C 160.792969 85.691406 160.90625 85.601562 161.019531 85.507812 C 161.425781 85.152344 161.820312 84.800781 162.238281 84.464844 C 162.277344 84.433594 162.316406 84.40625 162.355469 84.367188 C 169.453125 78.617188 178.226562 75.480469 187.488281 75.480469 C 190.628906 75.480469 193.707031 75.847656 196.6875 76.546875 C 202.433594 77.894531 207.800781 80.5 212.453125 84.238281 C 212.515625 84.285156 212.574219 84.328125 212.628906 84.375 C 212.664062 84.40625 212.699219 84.429688 212.734375 84.460938 C 213.15625 84.800781 213.566406 85.15625 213.96875 85.519531 C 214.070312 85.609375 214.179688 85.699219 214.28125 85.789062 C 214.691406 86.164062 215.09375 86.546875 215.492188 86.9375 C 215.578125 87.023438 215.667969 87.101562 215.75 87.183594 L 291.152344 162.585938 C 298.703125 170.136719 302.863281 180.179688 302.863281 190.863281 C 302.878906 191.554688 302.863281 192.234375 302.832031 192.910156 Z M 302.832031 192.910156 " fill-opacity="1" fill-rule="nonzero"/></g><g fill="#3c51c4" fill-opacity="1"><g transform="translate(55.031439, 317.818396)"><g><path d="M 21.609375 0.8125 C 18.835938 0.8125 16.265625 0.316406 13.890625 -0.671875 C 11.523438 -1.660156 9.460938 -3.039062 7.703125 -4.8125 C 5.941406 -6.59375 4.578125 -8.675781 3.609375 -11.0625 C 2.640625 -13.457031 2.15625 -16.039062 2.15625 -18.8125 C 2.15625 -21.613281 2.640625 -24.21875 3.609375 -26.625 C 4.578125 -29.03125 5.941406 -31.117188 7.703125 -32.890625 C 9.460938 -34.671875 11.523438 -36.054688 13.890625 -37.046875 C 16.265625 -38.035156 18.835938 -38.53125 21.609375 -38.53125 C 24.660156 -38.53125 27.460938 -37.898438 30.015625 -36.640625 C 32.566406 -35.390625 34.703125 -33.628906 36.421875 -31.359375 C 38.148438 -29.097656 39.300781 -26.476562 39.875 -23.5 L 31.6875 -23.5 C 30.9375 -25.726562 29.660156 -27.492188 27.859375 -28.796875 C 26.066406 -30.109375 23.984375 -30.765625 21.609375 -30.765625 C 19.492188 -30.765625 17.585938 -30.234375 15.890625 -29.171875 C 14.203125 -28.117188 12.863281 -26.691406 11.875 -24.890625 C 10.894531 -23.097656 10.40625 -21.070312 10.40625 -18.8125 C 10.40625 -16.539062 10.894531 -14.515625 11.875 -12.734375 C 12.863281 -10.960938 14.203125 -9.554688 15.890625 -8.515625 C 17.585938 -7.472656 19.492188 -6.953125 21.609375 -6.953125 C 24.085938 -6.953125 26.222656 -7.648438 28.015625 -9.046875 C 29.816406 -10.453125 31.054688 -12.359375 31.734375 -14.765625 L 39.984375 -14.765625 C 39.410156 -11.640625 38.269531 -8.910156 36.5625 -6.578125 C 34.851562 -4.242188 32.710938 -2.425781 30.140625 -1.125 C 27.578125 0.164062 24.734375 0.8125 21.609375 0.8125 Z M 21.609375 0.8125 "/></g></g></g><g fill="#3c51c4" fill-opacity="1"><g transform="translate(95.504403, 317.818396)"><g><path d="M 20.421875 -29.796875 C 23.722656 -29.796875 26.328125 -28.703125 28.234375 -26.515625 C 30.140625 -24.328125 31.09375 -21.378906 31.09375 -17.671875 L 31.09375 0 L 23.234375 0 L 23.234375 -16.375 C 23.234375 -18.53125 22.835938 -20.15625 22.046875 -21.25 C 21.253906 -22.351562 19.957031 -22.90625 18.15625 -22.90625 C 16.21875 -22.90625 14.644531 -22.226562 13.4375 -20.875 C 12.238281 -19.53125 11.640625 -17.675781 11.640625 -15.3125 L 11.640625 0 L 3.765625 0 L 3.765625 -39.609375 L 11.640625 -39.609375 L 11.640625 -26.40625 C 12.753906 -27.445312 14.066406 -28.269531 15.578125 -28.875 C 17.085938 -29.488281 18.703125 -29.796875 20.421875 -29.796875 Z M 20.421875 -29.796875 "/></g></g></g><g fill="#3c51c4" fill-opacity="1"><g transform="translate(128.971351, 317.818396)"><g><path d="M 27.53125 -29.15625 L 33.40625 -29.15625 L 33.40625 -0.046875 L 27.21875 -0.046875 L 26.5625 -2.640625 C 25.3125 -1.566406 23.882812 -0.722656 22.28125 -0.109375 C 20.6875 0.503906 18.972656 0.8125 17.140625 0.8125 C 14.222656 0.8125 11.613281 0.140625 9.3125 -1.203125 C 7.019531 -2.554688 5.207031 -4.390625 3.875 -6.703125 C 2.550781 -9.023438 1.890625 -11.660156 1.890625 -14.609375 C 1.890625 -17.515625 2.550781 -20.125 3.875 -22.4375 C 5.207031 -24.757812 7.019531 -26.582031 9.3125 -27.90625 C 11.613281 -29.238281 14.222656 -29.90625 17.140625 -29.90625 C 19.003906 -29.90625 20.742188 -29.585938 22.359375 -28.953125 C 23.984375 -28.328125 25.421875 -27.460938 26.671875 -26.359375 Z M 17.78125 -6.625 C 19.289062 -6.625 20.644531 -6.960938 21.84375 -7.640625 C 23.050781 -8.328125 23.992188 -9.269531 24.671875 -10.46875 C 25.359375 -11.675781 25.703125 -13.054688 25.703125 -14.609375 C 25.703125 -16.117188 25.359375 -17.472656 24.671875 -18.671875 C 23.992188 -19.878906 23.050781 -20.832031 21.84375 -21.53125 C 20.644531 -22.226562 19.289062 -22.578125 17.78125 -22.578125 C 16.238281 -22.578125 14.875 -22.226562 13.6875 -21.53125 C 12.5 -20.832031 11.5625 -19.878906 10.875 -18.671875 C 10.195312 -17.472656 9.859375 -16.117188 9.859375 -14.609375 C 9.859375 -13.054688 10.195312 -11.6875 10.875 -10.5 C 11.5625 -9.320312 12.5 -8.378906 13.6875 -7.671875 C 14.875 -6.972656 16.238281 -6.625 17.78125 -6.625 Z M 17.78125 -6.625 "/></g></g></g><g fill="#3c51c4" fill-opacity="1"><g transform="translate(165.079022, 317.818396)"><g><path d="M 18 -7 L 21.5625 -7 L 21.5625 0 L 16 0 C 12.800781 0 10.273438 -0.921875 8.421875 -2.765625 C 6.578125 -4.617188 5.65625 -7.164062 5.65625 -10.40625 L 5.65625 -22.796875 L 0.375 -22.796875 L 0.375 -24.46875 L 11.90625 -36.703125 L 13.359375 -36.703125 L 13.359375 -29.09375 L 21.390625 -29.09375 L 21.390625 -22.796875 L 13.53125 -22.796875 L 13.53125 -11.421875 C 13.53125 -10.023438 13.914062 -8.9375 14.6875 -8.15625 C 15.457031 -7.382812 16.5625 -7 18 -7 Z M 18 -7 "/></g></g></g><g fill="#3c51c4" fill-opacity="1"><g transform="translate(187.174662, 317.818396)"><g><path d="M 32.015625 -14.65625 C 32.015625 -13.90625 31.957031 -13.132812 31.84375 -12.34375 L 9.859375 -12.34375 C 10.179688 -10.363281 10.972656 -8.84375 12.234375 -7.78125 C 13.492188 -6.726562 15.070312 -6.203125 16.96875 -6.203125 C 18.332031 -6.203125 19.550781 -6.492188 20.625 -7.078125 C 21.707031 -7.671875 22.539062 -8.488281 23.125 -9.53125 L 31.421875 -9.53125 C 30.335938 -6.375 28.503906 -3.859375 25.921875 -1.984375 C 23.335938 -0.117188 20.351562 0.8125 16.96875 0.8125 C 14.101562 0.8125 11.523438 0.140625 9.234375 -1.203125 C 6.953125 -2.554688 5.15625 -4.390625 3.84375 -6.703125 C 2.539062 -9.023438 1.890625 -11.640625 1.890625 -14.546875 C 1.890625 -17.460938 2.539062 -20.078125 3.84375 -22.390625 C 5.15625 -24.710938 6.953125 -26.546875 9.234375 -27.890625 C 11.523438 -29.234375 14.101562 -29.90625 16.96875 -29.90625 C 19.957031 -29.90625 22.582031 -29.210938 24.84375 -27.828125 C 27.101562 -26.453125 28.863281 -24.613281 30.125 -22.3125 C 31.382812 -20.007812 32.015625 -17.457031 32.015625 -14.65625 Z M 16.96875 -23.234375 C 15.207031 -23.234375 13.722656 -22.742188 12.515625 -21.765625 C 11.316406 -20.796875 10.503906 -19.453125 10.078125 -17.734375 L 24.140625 -17.734375 C 22.992188 -21.398438 20.601562 -23.234375 16.96875 -23.234375 Z M 16.96875 -23.234375 "/></g></g></g><g fill="#3c51c4" fill-opacity="1"><g transform="translate(219.941002, 317.818396)"><g/></g></g><g fill="#3c51c4" fill-opacity="1"><g transform="translate(231.743177, 317.818396)"><g><path d="M 16.8125 0.75 C 13.9375 0.75 11.398438 0.226562 9.203125 -0.8125 C 7.015625 -1.851562 5.300781 -3.34375 4.0625 -5.28125 C 2.820312 -7.21875 2.203125 -9.535156 2.203125 -12.234375 L 10.453125 -12.234375 C 10.453125 -10.398438 11.085938 -9.039062 12.359375 -8.15625 C 13.640625 -7.28125 15.109375 -6.84375 16.765625 -6.84375 C 17.804688 -6.84375 18.785156 -7.015625 19.703125 -7.359375 C 20.617188 -7.703125 21.367188 -8.203125 21.953125 -8.859375 C 22.546875 -9.523438 22.84375 -10.328125 22.84375 -11.265625 C 22.84375 -12.234375 22.5 -12.992188 21.8125 -13.546875 C 21.132812 -14.109375 20.222656 -14.566406 19.078125 -14.921875 C 17.929688 -15.285156 16.675781 -15.628906 15.3125 -15.953125 C 13.90625 -16.273438 12.460938 -16.671875 10.984375 -17.140625 C 9.515625 -17.609375 8.148438 -18.226562 6.890625 -19 C 5.640625 -19.769531 4.632812 -20.8125 3.875 -22.125 C 3.125 -23.4375 2.75 -25.097656 2.75 -27.109375 C 2.75 -30.734375 3.976562 -33.523438 6.4375 -35.484375 C 8.894531 -37.441406 12.226562 -38.421875 16.4375 -38.421875 C 20.75 -38.421875 24.085938 -37.332031 26.453125 -35.15625 C 28.828125 -32.988281 30.015625 -30.035156 30.015625 -26.296875 L 21.9375 -26.296875 C 21.9375 -27.910156 21.359375 -29.101562 20.203125 -29.875 C 19.054688 -30.65625 17.726562 -31.046875 16.21875 -31.046875 C 14.894531 -31.046875 13.675781 -30.753906 12.5625 -30.171875 C 11.445312 -29.597656 10.890625 -28.703125 10.890625 -27.484375 C 10.890625 -26.585938 11.21875 -25.878906 11.875 -25.359375 C 12.539062 -24.835938 13.421875 -24.40625 14.515625 -24.0625 C 15.617188 -23.71875 16.832031 -23.382812 18.15625 -23.0625 C 19.59375 -22.707031 21.066406 -22.285156 22.578125 -21.796875 C 24.085938 -21.316406 25.488281 -20.660156 26.78125 -19.828125 C 28.070312 -19.003906 29.125 -17.910156 29.9375 -16.546875 C 30.75 -15.179688 31.15625 -13.457031 31.15625 -11.375 C 31.15625 -8.644531 30.5 -6.378906 29.1875 -4.578125 C 27.875 -2.785156 26.140625 -1.445312 23.984375 -0.5625 C 21.828125 0.3125 19.4375 0.75 16.8125 0.75 Z M 16.8125 0.75 "/></g></g></g><g fill="#3c51c4" fill-opacity="1"><g transform="translate(264.024478, 317.818396)"><g><path d="M 32.015625 -14.65625 C 32.015625 -13.90625 31.957031 -13.132812 31.84375 -12.34375 L 9.859375 -12.34375 C 10.179688 -10.363281 10.972656 -8.84375 12.234375 -7.78125 C 13.492188 -6.726562 15.070312 -6.203125 16.96875 -6.203125 C 18.332031 -6.203125 19.550781 -6.492188 20.625 -7.078125 C 21.707031 -7.671875 22.539062 -8.488281 23.125 -9.53125 L 31.421875 -9.53125 C 30.335938 -6.375 28.503906 -3.859375 25.921875 -1.984375 C 23.335938 -0.117188 20.351562 0.8125 16.96875 0.8125 C 14.101562 0.8125 11.523438 0.140625 9.234375 -1.203125 C 6.953125 -2.554688 5.15625 -4.390625 3.84375 -6.703125 C 2.539062 -9.023438 1.890625 -11.640625 1.890625 -14.546875 C 1.890625 -17.460938 2.539062 -20.078125 3.84375 -22.390625 C 5.15625 -24.710938 6.953125 -26.546875 9.234375 -27.890625 C 11.523438 -29.234375 14.101562 -29.90625 16.96875 -29.90625 C 19.957031 -29.90625 22.582031 -29.210938 24.84375 -27.828125 C 27.101562 -26.453125 28.863281 -24.613281 30.125 -22.3125 C 31.382812 -20.007812 32.015625 -17.457031 32.015625 -14.65625 Z M 16.96875 -23.234375 C 15.207031 -23.234375 13.722656 -22.742188 12.515625 -21.765625 C 11.316406 -20.796875 10.503906 -19.453125 10.078125 -17.734375 L 24.140625 -17.734375 C 22.992188 -21.398438 20.601562 -23.234375 16.96875 -23.234375 Z M 16.96875 -23.234375 "/></g></g></g><g fill="#3c51c4" fill-opacity="1"><g transform="translate(296.790818, 317.818396)"><g><path d="M 18 -7 L 21.5625 -7 L 21.5625 0 L 16 0 C 12.800781 0 10.273438 -0.921875 8.421875 -2.765625 C 6.578125 -4.617188 5.65625 -7.164062 5.65625 -10.40625 L 5.65625 -22.796875 L 0.375 -22.796875 L 0.375 -24.46875 L 11.90625 -36.703125 L 13.359375 -36.703125 L 13.359375 -29.09375 L 21.390625 -29.09375 L 21.390625 -22.796875 L 13.53125 -22.796875 L 13.53125 -11.421875 C 13.53125 -10.023438 13.914062 -8.9375 14.6875 -8.15625 C 15.457031 -7.382812 16.5625 -7 18 -7 Z M 18 -7 "/></g></g></g><g fill="#00cdba" fill-opacity="1"><g transform="translate(143.969416, 349.571934)"><g><path d="M 6.140625 0.1875 C 5.179688 0.1875 4.320312 0.0195312 3.5625 -0.3125 C 2.8125 -0.65625 2.195312 -1.140625 1.71875 -1.765625 C 1.238281 -2.398438 0.929688 -3.148438 0.796875 -4.015625 C 1.554688 -4.410156 2.234375 -4.710938 2.828125 -4.921875 C 3.421875 -5.128906 3.976562 -5.269531 4.5 -5.34375 C 5.03125 -5.425781 5.566406 -5.46875 6.109375 -5.46875 C 7.222656 -5.46875 8.285156 -5.25 9.296875 -4.8125 C 9.296875 -4.882812 9.296875 -4.96875 9.296875 -5.0625 C 9.296875 -6.101562 9 -6.890625 8.40625 -7.421875 C 7.820312 -7.953125 7 -8.21875 5.9375 -8.21875 C 5.226562 -8.21875 4.570312 -8.113281 3.96875 -7.90625 C 3.375 -7.695312 2.742188 -7.421875 2.078125 -7.078125 L 1.0625 -9.046875 C 1.863281 -9.441406 2.671875 -9.75 3.484375 -9.96875 C 4.296875 -10.1875 5.234375 -10.296875 6.296875 -10.296875 C 7.484375 -10.296875 8.507812 -10.082031 9.375 -9.65625 C 10.25 -9.226562 10.921875 -8.625 11.390625 -7.84375 C 11.867188 -7.0625 12.109375 -6.132812 12.109375 -5.0625 C 12.109375 -3.945312 11.851562 -2.992188 11.34375 -2.203125 C 10.84375 -1.421875 10.144531 -0.828125 9.25 -0.421875 C 8.351562 -0.015625 7.316406 0.1875 6.140625 0.1875 Z M 3.4375 -3 C 3.65625 -2.6875 4.023438 -2.425781 4.546875 -2.21875 C 5.066406 -2.019531 5.617188 -1.921875 6.203125 -1.921875 C 7.398438 -1.921875 8.253906 -2.289062 8.765625 -3.03125 C 8.347656 -3.207031 7.945312 -3.347656 7.5625 -3.453125 C 7.175781 -3.566406 6.78125 -3.625 6.375 -3.625 C 5.40625 -3.625 4.425781 -3.414062 3.4375 -3 Z M 3.4375 -3 "/></g></g></g><g fill="#00cdba" fill-opacity="1"><g transform="translate(156.912781, 349.571934)"><g><path d="M 4.296875 8.8125 L -3.71875 6.28125 L -3.71875 -3.875 L -1.734375 -3.875 L -1.734375 4.578125 L 1.578125 5.640625 L 1.578125 -10.28125 L 4.296875 -10.28125 Z M 4.296875 8.8125 "/></g></g></g><g fill="#00cdba" fill-opacity="1"><g transform="translate(164.932656, 349.571934)"><g><path d="M -5.8125 -11.578125 C -6.53125 -11.578125 -7.15625 -11.726562 -7.6875 -12.03125 C -8.226562 -12.332031 -8.648438 -12.75 -8.953125 -13.28125 C -9.253906 -13.8125 -9.40625 -14.425781 -9.40625 -15.125 C -9.40625 -15.820312 -9.253906 -16.429688 -8.953125 -16.953125 C -8.660156 -17.484375 -8.242188 -17.894531 -7.703125 -18.1875 C -7.160156 -18.488281 -6.53125 -18.640625 -5.8125 -18.640625 C -5.082031 -18.640625 -4.445312 -18.484375 -3.90625 -18.171875 C -3.375 -17.867188 -2.957031 -17.453125 -2.65625 -16.921875 C -2.363281 -16.398438 -2.21875 -15.800781 -2.21875 -15.125 C -2.21875 -14.425781 -2.367188 -13.8125 -2.671875 -13.28125 C -2.972656 -12.75 -3.390625 -12.332031 -3.921875 -12.03125 C -4.460938 -11.726562 -5.09375 -11.578125 -5.8125 -11.578125 Z M -5.8125 -13.34375 C -5.351562 -13.34375 -5.003906 -13.515625 -4.765625 -13.859375 C -4.535156 -14.210938 -4.421875 -14.632812 -4.421875 -15.125 C -4.421875 -15.59375 -4.535156 -16.003906 -4.765625 -16.359375 C -5.003906 -16.710938 -5.351562 -16.890625 -5.8125 -16.890625 C -6.269531 -16.890625 -6.613281 -16.710938 -6.84375 -16.359375 C -7.082031 -16.003906 -7.203125 -15.59375 -7.203125 -15.125 C -7.203125 -14.644531 -7.082031 -14.226562 -6.84375 -13.875 C -6.613281 -13.519531 -6.269531 -13.34375 -5.8125 -13.34375 Z M -5.8125 -13.34375 "/></g></g></g><g fill="#00cdba" fill-opacity="1"><g transform="translate(164.876665, 349.571934)"><g><path d="M 6.296875 0.1875 C 5.242188 0.1875 4.304688 -0.03125 3.484375 -0.46875 C 2.671875 -0.914062 2.023438 -1.53125 1.546875 -2.3125 C 1.066406 -3.101562 0.828125 -4.019531 0.828125 -5.0625 C 0.828125 -6.09375 1.066406 -7 1.546875 -7.78125 C 2.023438 -8.570312 2.671875 -9.1875 3.484375 -9.625 C 4.304688 -10.070312 5.242188 -10.296875 6.296875 -10.296875 C 7.171875 -10.296875 7.941406 -10.148438 8.609375 -9.859375 C 9.273438 -9.566406 9.820312 -9.160156 10.25 -8.640625 C 10.613281 -9.085938 11.117188 -9.472656 11.765625 -9.796875 C 12.410156 -10.128906 13.226562 -10.296875 14.21875 -10.296875 C 15.332031 -10.296875 16.296875 -10.082031 17.109375 -9.65625 C 17.929688 -9.238281 18.566406 -8.640625 19.015625 -7.859375 C 19.472656 -7.078125 19.703125 -6.148438 19.703125 -5.078125 C 19.703125 -4.066406 19.476562 -3.160156 19.03125 -2.359375 C 18.59375 -1.566406 17.988281 -0.941406 17.21875 -0.484375 C 16.457031 -0.0351562 15.585938 0.1875 14.609375 0.1875 C 14.367188 0.1875 14.101562 0.160156 13.8125 0.109375 C 13.519531 0.0546875 13.226562 -0.0078125 12.9375 -0.09375 C 12.65625 -0.175781 12.414062 -0.28125 12.21875 -0.40625 L 13.140625 -2.46875 C 13.460938 -2.34375 13.707031 -2.257812 13.875 -2.21875 C 14.039062 -2.1875 14.257812 -2.171875 14.53125 -2.171875 C 15.238281 -2.171875 15.804688 -2.425781 16.234375 -2.9375 C 16.671875 -3.445312 16.890625 -4.160156 16.890625 -5.078125 C 16.890625 -5.941406 16.644531 -6.660156 16.15625 -7.234375 C 15.675781 -7.804688 15.039062 -8.09375 14.25 -8.09375 C 13.539062 -8.09375 12.941406 -7.914062 12.453125 -7.5625 C 11.960938 -7.207031 11.59375 -6.785156 11.34375 -6.296875 C 11.425781 -5.898438 11.46875 -5.488281 11.46875 -5.0625 C 11.46875 -4.03125 11.253906 -3.117188 10.828125 -2.328125 C 10.410156 -1.535156 9.816406 -0.914062 9.046875 -0.46875 C 8.273438 -0.03125 7.359375 0.1875 6.296875 0.1875 Z M 6.28125 -2.03125 C 7.113281 -2.03125 7.757812 -2.304688 8.21875 -2.859375 C 8.6875 -3.421875 8.921875 -4.15625 8.921875 -5.0625 C 8.921875 -5.976562 8.6875 -6.707031 8.21875 -7.25 C 7.75 -7.800781 7.101562 -8.078125 6.28125 -8.078125 C 5.519531 -8.078125 4.890625 -7.796875 4.390625 -7.234375 C 3.890625 -6.679688 3.640625 -5.957031 3.640625 -5.0625 C 3.640625 -4.164062 3.882812 -3.4375 4.375 -2.875 C 4.875 -2.3125 5.507812 -2.03125 6.28125 -2.03125 Z M 6.28125 -2.03125 "/></g></g></g><g fill="#00cdba" fill-opacity="1"><g transform="translate(184.824463, 349.571934)"><g><path d="M -7.109375 -11.578125 C -7.722656 -12.023438 -8.191406 -12.441406 -8.515625 -12.828125 C -8.847656 -13.222656 -9.078125 -13.613281 -9.203125 -14 C -9.328125 -14.394531 -9.390625 -14.800781 -9.390625 -15.21875 C -9.390625 -15.882812 -9.234375 -16.476562 -8.921875 -17 C -8.617188 -17.519531 -8.195312 -17.921875 -7.65625 -18.203125 C -7.113281 -18.492188 -6.492188 -18.640625 -5.796875 -18.640625 C -5.148438 -18.640625 -4.554688 -18.5 -4.015625 -18.21875 C -3.472656 -17.9375 -3.078125 -17.53125 -2.828125 -17 L -4.375 -16.046875 C -4.476562 -16.234375 -4.644531 -16.414062 -4.875 -16.59375 C -5.113281 -16.78125 -5.425781 -16.875 -5.8125 -16.875 C -6.207031 -16.875 -6.535156 -16.71875 -6.796875 -16.40625 C -7.054688 -16.09375 -7.1875 -15.738281 -7.1875 -15.34375 C -7.1875 -14.914062 -7.082031 -14.535156 -6.875 -14.203125 C -6.675781 -13.878906 -6.453125 -13.609375 -6.203125 -13.390625 C -5.960938 -13.179688 -5.796875 -13.023438 -5.703125 -12.921875 Z M -7.109375 -11.578125 "/></g></g></g><g fill="#00cdba" fill-opacity="1"><g transform="translate(187.635616, 349.571934)"><g><path d="M 6.140625 0.1875 C 5.179688 0.1875 4.320312 0.0195312 3.5625 -0.3125 C 2.8125 -0.65625 2.195312 -1.140625 1.71875 -1.765625 C 1.238281 -2.398438 0.929688 -3.148438 0.796875 -4.015625 C 1.554688 -4.410156 2.210938 -4.710938 2.765625 -4.921875 C 3.328125 -5.128906 3.84375 -5.269531 4.3125 -5.34375 C 4.789062 -5.425781 5.3125 -5.46875 5.875 -5.46875 C 6.320312 -5.46875 6.78125 -5.410156 7.25 -5.296875 C 7.726562 -5.191406 8.1875 -5.035156 8.625 -4.828125 C 8.625 -4.898438 8.625 -4.976562 8.625 -5.0625 C 8.625 -6.101562 8.363281 -6.890625 7.84375 -7.421875 C 7.332031 -7.953125 6.648438 -8.21875 5.796875 -8.21875 C 5.160156 -8.21875 4.585938 -8.148438 4.078125 -8.015625 C 3.578125 -7.878906 2.992188 -7.613281 2.328125 -7.21875 L 1.421875 -9 C 2.035156 -9.34375 2.578125 -9.609375 3.046875 -9.796875 C 3.523438 -9.984375 4.007812 -10.113281 4.5 -10.1875 C 4.988281 -10.257812 5.585938 -10.296875 6.296875 -10.296875 C 7.078125 -10.296875 7.773438 -10.160156 8.390625 -9.890625 C 9.015625 -9.617188 9.546875 -9.234375 9.984375 -8.734375 C 10.453125 -9.222656 11.023438 -9.601562 11.703125 -9.875 C 12.390625 -10.15625 13.179688 -10.296875 14.078125 -10.296875 C 15.222656 -10.296875 16.21875 -10.066406 17.0625 -9.609375 C 17.914062 -9.148438 18.578125 -8.523438 19.046875 -7.734375 C 19.515625 -6.941406 19.75 -6.050781 19.75 -5.0625 C 19.75 -4.019531 19.503906 -3.101562 19.015625 -2.3125 C 18.535156 -1.53125 17.867188 -0.914062 17.015625 -0.46875 C 16.160156 -0.03125 15.179688 0.1875 14.078125 0.1875 C 13.160156 0.1875 12.363281 0.0507812 11.6875 -0.21875 C 11.007812 -0.5 10.4375 -0.890625 9.96875 -1.390625 C 9.050781 -0.335938 7.773438 0.1875 6.140625 0.1875 Z M 11.1875 -5.0625 C 11.1875 -4.625 11.148438 -4.207031 11.078125 -3.8125 C 11.316406 -3.3125 11.675781 -2.890625 12.15625 -2.546875 C 12.644531 -2.203125 13.289062 -2.03125 14.09375 -2.03125 C 14.957031 -2.03125 15.648438 -2.304688 16.171875 -2.859375 C 16.691406 -3.421875 16.953125 -4.15625 16.953125 -5.0625 C 16.953125 -5.976562 16.6875 -6.707031 16.15625 -7.25 C 15.632812 -7.800781 14.925781 -8.078125 14.03125 -8.078125 C 13.238281 -8.078125 12.609375 -7.910156 12.140625 -7.578125 C 11.671875 -7.242188 11.316406 -6.816406 11.078125 -6.296875 C 11.148438 -5.898438 11.1875 -5.488281 11.1875 -5.0625 Z M 3.4375 -3 C 3.625 -2.6875 3.945312 -2.425781 4.40625 -2.21875 C 4.875 -2.019531 5.363281 -1.921875 5.875 -1.921875 C 6.945312 -1.921875 7.710938 -2.289062 8.171875 -3.03125 C 7.804688 -3.21875 7.453125 -3.363281 7.109375 -3.46875 C 6.773438 -3.570312 6.414062 -3.625 6.03125 -3.625 C 5.1875 -3.625 4.320312 -3.414062 3.4375 -3 Z M 3.4375 -3 "/></g></g></g><g fill="#00cdba" fill-opacity="1"><g transform="translate(210.45011, 349.571934)"><g><path d="M 3.515625 0.1875 C 2.734375 -0.269531 2.085938 -0.9375 1.578125 -1.8125 C 1.078125 -2.695312 0.828125 -3.78125 0.828125 -5.0625 C 0.828125 -6.09375 1.050781 -7 1.5 -7.78125 C 1.957031 -8.570312 2.585938 -9.1875 3.390625 -9.625 C 4.203125 -10.070312 5.144531 -10.296875 6.21875 -10.296875 C 7.125 -10.296875 7.921875 -10.148438 8.609375 -9.859375 C 9.296875 -9.578125 9.863281 -9.179688 10.3125 -8.671875 C 10.789062 -9.222656 11.367188 -9.628906 12.046875 -9.890625 C 12.734375 -10.160156 13.460938 -10.296875 14.234375 -10.296875 C 15.304688 -10.296875 16.253906 -10.070312 17.078125 -9.625 C 17.910156 -9.1875 18.554688 -8.570312 19.015625 -7.78125 C 19.484375 -6.988281 19.71875 -6.082031 19.71875 -5.0625 C 19.71875 -4.03125 19.5 -3.125 19.0625 -2.34375 C 18.632812 -1.5625 18.050781 -0.941406 17.3125 -0.484375 C 16.570312 -0.0351562 15.742188 0.1875 14.828125 0.1875 C 14.390625 0.1875 13.921875 0.140625 13.421875 0.046875 C 12.929688 -0.046875 12.523438 -0.195312 12.203125 -0.40625 L 13.125 -2.46875 C 13.394531 -2.363281 13.625 -2.285156 13.8125 -2.234375 C 14.007812 -2.191406 14.253906 -2.171875 14.546875 -2.171875 C 15.265625 -2.171875 15.835938 -2.429688 16.265625 -2.953125 C 16.691406 -3.472656 16.90625 -4.175781 16.90625 -5.0625 C 16.90625 -5.976562 16.640625 -6.707031 16.109375 -7.25 C 15.585938 -7.800781 14.914062 -8.078125 14.09375 -8.078125 C 13.414062 -8.078125 12.851562 -7.898438 12.40625 -7.546875 C 11.96875 -7.203125 11.632812 -6.789062 11.40625 -6.3125 C 11.476562 -5.914062 11.515625 -5.5 11.515625 -5.0625 C 11.515625 -3.84375 11.289062 -2.785156 10.84375 -1.890625 C 10.394531 -1.003906 9.738281 -0.3125 8.875 0.1875 L 7.484375 -2.03125 C 8.035156 -2.457031 8.421875 -2.925781 8.640625 -3.4375 C 8.859375 -3.945312 8.96875 -4.488281 8.96875 -5.0625 C 8.96875 -5.96875 8.71875 -6.695312 8.21875 -7.25 C 7.726562 -7.800781 7.085938 -8.078125 6.296875 -8.078125 C 5.503906 -8.078125 4.863281 -7.796875 4.375 -7.234375 C 3.882812 -6.679688 3.640625 -5.957031 3.640625 -5.0625 C 3.640625 -4.476562 3.734375 -3.941406 3.921875 -3.453125 C 4.109375 -2.972656 4.4375 -2.5 4.90625 -2.03125 Z M 3.515625 0.1875 "/></g></g></g><g fill="#00cdba" fill-opacity="1"><g transform="translate(230.360877, 349.571934)"><g><path d="M -7.109375 -11.578125 C -7.722656 -12.023438 -8.191406 -12.441406 -8.515625 -12.828125 C -8.847656 -13.222656 -9.078125 -13.613281 -9.203125 -14 C -9.328125 -14.394531 -9.390625 -14.800781 -9.390625 -15.21875 C -9.390625 -15.882812 -9.234375 -16.476562 -8.921875 -17 C -8.617188 -17.519531 -8.195312 -17.921875 -7.65625 -18.203125 C -7.113281 -18.492188 -6.492188 -18.640625 -5.796875 -18.640625 C -5.148438 -18.640625 -4.554688 -18.5 -4.015625 -18.21875 C -3.472656 -17.9375 -3.078125 -17.53125 -2.828125 -17 L -4.375 -16.046875 C -4.476562 -16.234375 -4.644531 -16.414062 -4.875 -16.59375 C -5.113281 -16.78125 -5.425781 -16.875 -5.8125 -16.875 C -6.207031 -16.875 -6.535156 -16.71875 -6.796875 -16.40625 C -7.054688 -16.09375 -7.1875 -15.738281 -7.1875 -15.34375 C -7.1875 -14.914062 -7.082031 -14.535156 -6.875 -14.203125 C -6.675781 -13.878906 -6.453125 -13.609375 -6.203125 -13.390625 C -5.960938 -13.179688 -5.796875 -13.023438 -5.703125 -12.921875 Z M -7.109375 -11.578125 "/></g></g></g></svg>