<svg xmlns="http://www.w3.org/2000/svg" xmlns:xlink="http://www.w3.org/1999/xlink" width="500" zoomAndPan="magnify" viewBox="0 0 375 374.999991" height="500" preserveAspectRatio="xMidYMid meet" version="1.0"><defs><clipPath id="6056d49633"><path d="M 206 57.644531 L 341.074219 57.644531 L 341.074219 246 L 206 246 Z M 206 57.644531 " clip-rule="nonzero"/></clipPath><clipPath id="465c5c2ec7"><path d="M 33.574219 112 L 188 112 L 188 317.144531 L 33.574219 317.144531 Z M 33.574219 112 " clip-rule="nonzero"/></clipPath><clipPath id="222b1fd3e8"><path d="M 115 91 L 341.074219 91 L 341.074219 317.144531 L 115 317.144531 Z M 115 91 " clip-rule="nonzero"/></clipPath></defs><g clip-path="url(#6056d49633)"><path fill="#00cdba" d="M 269.199219 57.503906 C 242.417969 57.503906 218.996094 72.15625 206.527344 93.871094 C 215.898438 96.414062 224.664062 100.839844 232.351562 106.957031 C 240 94.628906 253.652344 86.390625 269.199219 86.390625 C 293.089844 86.390625 312.527344 105.828125 312.527344 129.722656 L 312.527344 186.472656 L 320.261719 194.203125 C 333.902344 207.84375 341.414062 225.980469 341.414062 245.265625 L 341.414062 129.722656 C 341.414062 89.898438 309.019531 57.503906 269.199219 57.503906 Z M 269.199219 57.503906 " fill-opacity="1" fill-rule="nonzero"/></g><path fill="#010101" d="M 139.105469 109.957031 C 139.15625 109.90625 139.214844 109.859375 139.273438 109.808594 C 139.214844 109.859375 139.15625 109.90625 139.105469 109.957031 Z M 139.105469 109.957031 " fill-opacity="1" fill-rule="nonzero"/><path fill="#010101" d="M 137.742188 111.222656 C 137.867188 111.105469 137.996094 110.988281 138.128906 110.871094 C 137.996094 110.988281 137.867188 111.105469 137.742188 111.222656 Z M 137.742188 111.222656 " fill-opacity="1" fill-rule="nonzero"/><path fill="#010101" d="M 136.433594 112.5 C 136.609375 112.324219 136.785156 112.15625 136.964844 111.980469 C 136.785156 112.15625 136.609375 112.324219 136.433594 112.5 C 136.425781 112.507812 136.414062 112.519531 136.40625 112.527344 Z M 136.433594 112.5 " fill-opacity="1" fill-rule="nonzero"/><g clip-path="url(#465c5c2ec7)"><path fill="#1096e6" d="M 54.726562 296.332031 C 68.371094 309.972656 86.503906 317.484375 105.792969 317.484375 C 125.078125 317.484375 143.214844 309.972656 156.855469 296.332031 L 187.496094 265.691406 L 167.066406 245.265625 L 136.425781 275.90625 C 128.242188 284.089844 117.359375 288.597656 105.785156 288.597656 C 94.210938 288.597656 83.328125 284.089844 75.144531 275.90625 C 66.96875 267.726562 62.460938 256.839844 62.460938 245.265625 C 62.460938 233.695312 66.96875 222.808594 75.152344 214.628906 L 116.027344 173.75 C 112.964844 152.042969 119.753906 129.195312 136.398438 112.527344 L 54.726562 194.203125 C 41.085938 207.84375 33.574219 225.980469 33.574219 245.265625 C 33.574219 264.554688 41.085938 282.695312 54.726562 296.332031 Z M 54.726562 296.332031 " fill-opacity="1" fill-rule="nonzero"/></g><path fill="#010101" d="M 136.960938 111.980469 C 137.222656 111.726562 137.476562 111.46875 137.734375 111.222656 C 137.480469 111.46875 137.222656 111.726562 136.960938 111.980469 Z M 136.960938 111.980469 " fill-opacity="1" fill-rule="nonzero"/><path fill="#010101" d="M 138.121094 110.871094 C 138.445312 110.5625 138.773438 110.257812 139.105469 109.957031 C 138.773438 110.257812 138.445312 110.5625 138.121094 110.871094 Z M 138.121094 110.871094 " fill-opacity="1" fill-rule="nonzero"/><g clip-path="url(#222b1fd3e8)"><path fill="#3c51c4" d="M 320.261719 194.203125 L 312.527344 186.472656 L 238.558594 112.5 C 238.421875 112.363281 238.285156 112.234375 238.148438 112.097656 C 237.847656 111.804688 237.546875 111.507812 237.246094 111.214844 C 237.128906 111.105469 237.019531 111 236.902344 110.898438 C 236.5625 110.578125 236.222656 110.265625 235.882812 109.949219 C 235.839844 109.90625 235.785156 109.867188 235.742188 109.820312 C 234.632812 108.824219 233.5 107.871094 232.351562 106.957031 C 232.351562 106.957031 232.351562 106.957031 232.351562 106.953125 C 224.664062 100.835938 215.898438 96.40625 206.527344 93.863281 C 206.523438 93.878906 206.515625 93.890625 206.507812 93.902344 C 200.296875 92.222656 193.898438 91.375 187.5 91.375 C 170.226562 91.375 152.957031 97.515625 139.273438 109.800781 C 139.222656 109.851562 139.164062 109.898438 139.105469 109.949219 C 138.773438 110.25 138.445312 110.558594 138.121094 110.863281 C 137.996094 110.980469 137.867188 111.097656 137.734375 111.214844 C 137.476562 111.464844 137.214844 111.71875 136.960938 111.972656 C 136.785156 112.148438 136.601562 112.316406 136.425781 112.492188 L 136.398438 112.519531 C 119.753906 129.1875 112.957031 152.035156 116.027344 173.742188 C 118.140625 188.707031 124.941406 203.132812 136.433594 214.621094 L 167.074219 245.261719 L 187.5 265.683594 L 218.140625 296.324219 L 218.167969 296.296875 L 218.140625 296.324219 C 230.890625 309.070312 247.5625 316.464844 265.4375 317.378906 C 265.457031 317.378906 265.480469 317.378906 265.5 317.386719 C 266.03125 317.410156 266.558594 317.429688 267.09375 317.445312 C 267.183594 317.445312 267.273438 317.449219 267.359375 317.457031 C 267.972656 317.46875 268.585938 317.484375 269.207031 317.484375 C 269.824219 317.484375 270.4375 317.476562 271.050781 317.457031 C 271.140625 317.457031 271.234375 317.449219 271.316406 317.445312 C 271.847656 317.429688 272.378906 317.410156 272.910156 317.386719 C 272.929688 317.386719 272.953125 317.386719 272.972656 317.378906 C 290.847656 316.464844 307.519531 309.070312 320.269531 296.324219 C 333.015625 283.578125 340.410156 266.902344 341.324219 249.03125 C 341.324219 249.011719 341.324219 248.984375 341.332031 248.964844 C 341.355469 248.4375 341.375 247.910156 341.390625 247.375 C 341.390625 247.28125 341.394531 247.199219 341.402344 247.105469 C 341.414062 246.492188 341.429688 245.878906 341.429688 245.261719 C 341.414062 225.980469 333.902344 207.84375 320.261719 194.203125 Z M 312.476562 247.476562 C 312.46875 247.582031 312.457031 247.6875 312.449219 247.789062 C 312.410156 248.421875 312.371094 249.0625 312.308594 249.6875 C 312.308594 249.707031 312.300781 249.726562 312.300781 249.746094 C 310.207031 270.066406 294.011719 286.269531 273.683594 288.367188 C 273.664062 288.367188 273.640625 288.375 273.621094 288.375 C 272.992188 288.441406 272.359375 288.488281 271.722656 288.519531 C 271.617188 288.527344 271.511719 288.539062 271.410156 288.546875 C 270.679688 288.585938 269.941406 288.605469 269.199219 288.605469 C 268.457031 288.605469 267.726562 288.585938 266.988281 288.546875 C 266.882812 288.539062 266.78125 288.527344 266.675781 288.519531 C 266.042969 288.480469 265.410156 288.441406 264.777344 288.375 C 264.757812 288.375 264.730469 288.367188 264.710938 288.367188 C 254.832031 287.359375 245.679688 283.027344 238.558594 275.90625 L 196.976562 234.324219 L 187.488281 224.839844 L 156.847656 194.199219 C 139.960938 177.308594 139.953125 149.832031 156.835938 132.9375 C 156.839844 132.929688 156.839844 132.929688 156.847656 132.921875 C 156.964844 132.804688 157.082031 132.703125 157.199219 132.589844 C 157.609375 132.191406 158.023438 131.789062 158.445312 131.410156 C 158.5625 131.300781 158.6875 131.203125 158.8125 131.097656 C 159.246094 130.710938 159.679688 130.335938 160.128906 129.96875 C 160.171875 129.9375 160.210938 129.902344 160.257812 129.863281 C 167.945312 123.632812 177.453125 120.234375 187.488281 120.234375 C 190.890625 120.234375 194.230469 120.632812 197.457031 121.386719 C 203.6875 122.847656 209.503906 125.671875 214.542969 129.722656 C 214.609375 129.773438 214.671875 129.820312 214.730469 129.871094 C 214.769531 129.902344 214.808594 129.929688 214.847656 129.960938 C 215.304688 130.335938 215.75 130.71875 216.1875 131.109375 C 216.296875 131.207031 216.414062 131.304688 216.523438 131.402344 C 216.96875 131.808594 217.40625 132.226562 217.835938 132.648438 C 217.925781 132.742188 218.023438 132.824219 218.117188 132.917969 L 299.820312 214.621094 C 308.003906 222.804688 312.507812 233.6875 312.507812 245.261719 C 312.527344 246.011719 312.507812 246.746094 312.476562 247.476562 Z M 312.476562 247.476562 " fill-opacity="1" fill-rule="nonzero"/></g></svg>